<?xml version="1.0" encoding="UTF-8" standalone="no"?>
<!DOCTYPE svg PUBLIC "-//W3C//DTD SVG 1.1//EN"
 "http://www.w3.org/Graphics/SVG/1.1/DTD/svg11.dtd">
<!-- Generated by graphviz version 12.2.1 (20241206.2353)
 -->
<!-- Title: pt Pages: 1 -->
<svg width="545pt" height="125pt"
 viewBox="0.00 0.00 544.59 125.00" xmlns="http://www.w3.org/2000/svg" xmlns:xlink="http://www.w3.org/1999/xlink">
<g id="graph0" class="graph" transform="scale(1 1) rotate(0) translate(4 121)">
<title>pt</title>
<polygon fill="white" stroke="none" points="-4,4 -4,-121 540.59,-121 540.59,4 -4,4"/>
<!-- 12404747088 -->
<g id="node1" class="node">
<title>12404747088</title>
<ellipse fill="none" stroke="black" cx="27" cy="-72" rx="27" ry="18"/>
<text text-anchor="middle" x="27" y="-66.38" font-family="Times,serif" font-size="15.00">seq</text>
</g>
<!-- 12404748240 -->
<g id="node2" class="node">
<title>12404748240</title>
<ellipse fill="none" stroke="black" cx="168.57" cy="-99" rx="78.57" ry="18"/>
<text text-anchor="middle" x="168.57" y="-93.38" font-family="Times,serif" font-size="15.00">Pedido recibido</text>
</g>
<!-- 12404747088&#45;&#45;12404748240 -->
<g id="edge1" class="edge">
<title>12404747088&#45;&#45;12404748240</title>
<path fill="none" stroke="black" d="M53.27,-76.89C68.43,-79.82 88.41,-83.69 107.41,-87.36"/>
</g>
<!-- 12404629216 -->
<g id="node3" class="node">
<title>12404629216</title>
<ellipse fill="none" stroke="black" cx="168.57" cy="-45" rx="27" ry="18"/>
<text text-anchor="middle" x="168.57" y="-39.38" font-family="Times,serif" font-size="15.00">xor</text>
</g>
<!-- 12404747088&#45;&#45;12404629216 -->
<g id="edge6" class="edge">
<title>12404747088&#45;&#45;12404629216</title>
<path fill="none" stroke="black" d="M53.27,-67.11C78.57,-62.22 117.25,-54.73 142.48,-49.85"/>
</g>
<!-- 12404629456 -->
<g id="node4" class="node">
<title>12404629456</title>
<ellipse fill="none" stroke="black" cx="330.66" cy="-72" rx="27" ry="18"/>
<text text-anchor="middle" x="330.66" y="-66.38" font-family="Times,serif" font-size="15.00">seq</text>
</g>
<!-- 12404629216&#45;&#45;12404629456 -->
<g id="edge4" class="edge">
<title>12404629216&#45;&#45;12404629456</title>
<path fill="none" stroke="black" d="M195.29,-49.34C225.16,-54.38 274.15,-62.64 304,-67.67"/>
</g>
<!-- 12403486528 -->
<g id="node7" class="node">
<title>12403486528</title>
<ellipse fill="none" stroke="black" cx="330.66" cy="-18" rx="47.53" ry="18"/>
<text text-anchor="middle" x="330.66" y="-12.38" font-family="Times,serif" font-size="15.00">Rechazo</text>
</g>
<!-- 12404629216&#45;&#45;12403486528 -->
<g id="edge5" class="edge">
<title>12404629216&#45;&#45;12403486528</title>
<path fill="none" stroke="black" d="M195.29,-40.66C219.86,-36.52 257.36,-30.19 286.51,-25.28"/>
</g>
<!-- 12403571152 -->
<g id="node5" class="node">
<title>12403571152</title>
<ellipse fill="none" stroke="black" cx="475.39" cy="-99" rx="57" ry="18"/>
<text text-anchor="middle" x="475.39" y="-93.38" font-family="Times,serif" font-size="15.00">Validación</text>
</g>
<!-- 12404629456&#45;&#45;12403571152 -->
<g id="edge2" class="edge">
<title>12404629456&#45;&#45;12403571152</title>
<path fill="none" stroke="black" d="M357.17,-76.83C376.18,-80.42 402.7,-85.44 425.71,-89.79"/>
</g>
<!-- 12403571200 -->
<g id="node6" class="node">
<title>12403571200</title>
<ellipse fill="none" stroke="black" cx="475.39" cy="-45" rx="61.2" ry="18"/>
<text text-anchor="middle" x="475.39" y="-39.38" font-family="Times,serif" font-size="15.00">Aprobación</text>
</g>
<!-- 12404629456&#45;&#45;12403571200 -->
<g id="edge3" class="edge">
<title>12404629456&#45;&#45;12403571200</title>
<path fill="none" stroke="black" d="M357.17,-67.17C375.46,-63.71 400.7,-58.94 423.08,-54.71"/>
</g>
</g>
</svg>
